<svg xmlns="http://www.w3.org/2000/svg" width="720" height="300" viewBox="0 0 720 300">
  <rect width="720" height="300" fill="#12100E"/>
  <text x="30" y="30" font-size="16" fill="#46B0A4" font-family="monospace">Bebop field-sim — impulse at node 0 → propagation + Top-K Contours</text>
  <text x="30" y="50" font-size="12" fill="#F2E9DB" font-family="monospace">field u(t) after diffusion (heat strip)</text>
  <rect x="30.0" y="60" width="28.0" height="80" fill="rgb(70,176,164)"/><rect x="57.5" y="60" width="28.0" height="80" fill="rgb(66,163,152)"/><rect x="85.0" y="60" width="28.0" height="80" fill="rgb(58,140,130)"/><rect x="112.5" y="60" width="28.0" height="80" fill="rgb(49,112,104)"/><rect x="140.0" y="60" width="28.0" height="80" fill="rgb(40,85,79)"/><rect x="167.5" y="60" width="28.0" height="80" fill="rgb(33,62,57)"/><rect x="195.0" y="60" width="28.0" height="80" fill="rgb(27,44,40)"/><rect x="222.5" y="60" width="28.0" height="80" fill="rgb(23,32,29)"/><rect x="250.0" y="60" width="28.0" height="80" fill="rgb(21,24,22)"/><rect x="277.5" y="60" width="28.0" height="80" fill="rgb(19,20,18)"/><rect x="305.0" y="60" width="28.0" height="80" fill="rgb(19,18,16)"/><rect x="332.5" y="60" width="28.0" height="80" fill="rgb(18,17,15)"/><rect x="360.0" y="60" width="28.0" height="80" fill="rgb(18,16,14)"/><rect x="387.5" y="60" width="28.0" height="80" fill="rgb(18,16,14)"/><rect x="415.0" y="60" width="28.0" height="80" fill="rgb(18,16,14)"/><rect x="442.5" y="60" width="28.0" height="80" fill="rgb(18,16,14)"/><rect x="470.0" y="60" width="28.0" height="80" fill="rgb(18,16,14)"/><rect x="497.5" y="60" width="28.0" height="80" fill="rgb(18,16,14)"/><rect x="525.0" y="60" width="28.0" height="80" fill="rgb(18,16,14)"/><rect x="552.5" y="60" width="28.0" height="80" fill="rgb(18,16,14)"/><rect x="580.0" y="60" width="28.0" height="80" fill="rgb(18,16,14)"/><rect x="607.5" y="60" width="28.0" height="80" fill="rgb(18,16,14)"/><rect x="635.0" y="60" width="28.0" height="80" fill="rgb(18,16,14)"/><rect x="662.5" y="60" width="28.0" height="80" fill="rgb(18,16,14)"/>
  <text x="30" y="168" font-size="12" fill="#F2E9DB" font-family="monospace">Top-K Contours — worst-hit nodes (arbiter protects these)</text>
  <rect x="30.0" y="180.0" width="126.0" height="90.0" fill="#E0543E"/><text x="93.0" y="286.0" font-size="12" fill="#F2E9DB" text-anchor="middle">n0</text><rect x="162.0" y="188.8" width="126.0" height="81.2" fill="#E0543E"/><text x="225.0" y="286.0" font-size="12" fill="#F2E9DB" text-anchor="middle">n1</text><rect x="294.0" y="203.7" width="126.0" height="66.3" fill="#E0543E"/><text x="357.0" y="286.0" font-size="12" fill="#F2E9DB" text-anchor="middle">n2</text><rect x="426.0" y="221.0" width="126.0" height="49.0" fill="#E0543E"/><text x="489.0" y="286.0" font-size="12" fill="#F2E9DB" text-anchor="middle">n3</text><rect x="558.0" y="237.1" width="126.0" height="32.9" fill="#E0543E"/><text x="621.0" y="286.0" font-size="12" fill="#F2E9DB" text-anchor="middle">n4</text>
  <text x="30" y="288" font-size="11" fill="#E8A544" font-family="monospace">teal=#46B0A4 void=#12100E · cosmo-noir · deterministic f64 · no RNG</text>
</svg>