<svg xmlns="http://www.w3.org/2000/svg" width="1758" height="268" viewBox="0 0 1758 268"><rect width="1758" height="268" fill="#FBFCFD"/><text x="24" y="18" font-family="sans-serif" font-size="13" font-weight="bold" fill="#1a1a1a">Bebop map — focus: kernel</text><text x="119" y="38" font-family="sans-serif" font-size="11" font-weight="bold" fill="#46B0A4" text-anchor="middle">shell</text><text x="309" y="38" font-family="sans-serif" font-size="11" font-weight="bold" fill="#E0573E" text-anchor="middle">guard</text><text x="499" y="38" font-family="sans-serif" font-size="11" font-weight="bold" fill="#C9A227" text-anchor="middle">core</text><text x="689" y="38" font-family="sans-serif" font-size="11" font-weight="bold" fill="#5B8DEF" text-anchor="middle">routing</text><text x="879" y="38" font-family="sans-serif" font-size="11" font-weight="bold" fill="#9B6DDE" text-anchor="middle">agent</text><text x="1069" y="38" font-family="sans-serif" font-size="11" font-weight="bold" fill="#3FB68B" text-anchor="middle">memory</text><text x="1259" y="38" font-family="sans-serif" font-size="11" font-weight="bold" fill="#D98E2B" text-anchor="middle">mesh</text><text x="1449" y="38" font-family="sans-serif" font-size="11" font-weight="bold" fill="#7A8AA0" text-anchor="middle">platform</text><text x="1639" y="38" font-family="sans-serif" font-size="11" font-weight="bold" fill="#9AA0A6" text-anchor="middle">other</text><path d="M 194 65 C 214 65, 214 155, 234 155" fill="none" stroke="#E5E7EB" stroke-width="0.6" opacity="0.5"/><path d="M 194 65 C 499 65, 499 170, 804 170" fill="none" stroke="#E5E7EB" stroke-width="0.6" opacity="0.5"/><path d="M 194 65 C 404 65, 404 140, 614 140" fill="none" stroke="#E5E7EB" stroke-width="0.6" opacity="0.5"/><path d="M 194 65 C 594 65, 594 110, 994 110" fill="none" stroke="#E5E7EB" stroke-width="0.6" opacity="0.5"/><path d="M 194 65 C 594 65, 594 140, 994 140" fill="none" stroke="#E5E7EB" stroke-width="0.6" opacity="0.5"/><path d="M 194 65 C 309 65, 309 155, 424 155" fill="none" stroke="#E5E7EB" stroke-width="0.6" opacity="0.5"/><path d="M 194 65 C 119 65, 119 185, 44 185" fill="none" stroke="#E5E7EB" stroke-width="0.6" opacity="0.5"/><path d="M 194 65 C 119 65, 119 215, 44 215" fill="none" stroke="#E5E7EB" stroke-width="0.6" opacity="0.5"/><path d="M 194 65 C 119 65, 119 95, 44 95" fill="none" stroke="#E5E7EB" stroke-width="0.6" opacity="0.5"/><path d="M 194 65 C 404 65, 404 170, 614 170" fill="none" stroke="#E5E7EB" stroke-width="0.6" opacity="0.5"/><path d="M 194 65 C 119 65, 119 155, 44 155" fill="none" stroke="#E5E7EB" stroke-width="0.6" opacity="0.5"/><path d="M 194 65 C 404 65, 404 80, 614 80" fill="none" stroke="#E5E7EB" stroke-width="0.6" opacity="0.5"/><path d="M 194 65 C 499 65, 499 140, 804 140" fill="none" stroke="#E5E7EB" stroke-width="0.6" opacity="0.5"/><path d="M 194 65 C 879 65, 879 110, 1564 110" fill="none" stroke="#E5E7EB" stroke-width="0.6" opacity="0.5"/><path d="M 194 65 C 784 65, 784 215, 1374 215" fill="none" stroke="#E5E7EB" stroke-width="0.6" opacity="0.5"/><path d="M 194 65 C 499 65, 499 110, 804 110" fill="none" stroke="#E5E7EB" stroke-width="0.6" opacity="0.5"/><path d="M 194 65 C 594 65, 594 170, 994 170" fill="none" stroke="#E5E7EB" stroke-width="0.6" opacity="0.5"/><path d="M 194 65 C 784 65, 784 125, 1374 125" fill="none" stroke="#E5E7EB" stroke-width="0.6" opacity="0.5"/><path d="M 194 65 C 119 65, 119 125, 44 125" fill="none" stroke="#E5E7EB" stroke-width="0.6" opacity="0.5"/><path d="M 194 65 C 784 65, 784 155, 1374 155" fill="none" stroke="#E5E7EB" stroke-width="0.6" opacity="0.5"/><path d="M 194 65 C 214 65, 214 155, 234 155" fill="none" stroke="#E5E7EB" stroke-width="0.6" opacity="0.5"/><path d="M 194 65 C 499 65, 499 170, 804 170" fill="none" stroke="#E5E7EB" stroke-width="0.6" opacity="0.5"/><path d="M 194 65 C 784 65, 784 185, 1374 185" fill="none" stroke="#E5E7EB" stroke-width="0.6" opacity="0.5"/><path d="M 194 65 C 214 65, 214 125, 234 125" fill="none" stroke="#E5E7EB" stroke-width="0.6" opacity="0.5"/><path d="M 194 65 C 214 65, 214 155, 234 155" fill="none" stroke="#E5E7EB" stroke-width="0.6" opacity="0.5"/><path d="M 194 65 C 879 65, 879 170, 1564 170" fill="none" stroke="#E5E7EB" stroke-width="0.6" opacity="0.5"/><path d="M 764 80 C 689 80, 689 110, 614 110" fill="none" stroke="#E5E7EB" stroke-width="0.6" opacity="0.5"/><path d="M 954 110 C 974 110, 974 140, 994 140" fill="none" stroke="#E5E7EB" stroke-width="0.6" opacity="0.5"/><path d="M 954 110 C 689 110, 689 125, 424 125" fill="none" stroke="#E5E7EB" stroke-width="0.6" opacity="0.5"/><path d="M 954 110 C 879 110, 879 140, 804 140" fill="none" stroke="#E5E7EB" stroke-width="0.6" opacity="0.5"/><path d="M 954 110 C 1259 110, 1259 110, 1564 110" fill="none" stroke="#E5E7EB" stroke-width="0.6" opacity="0.5"/><path d="M 954 140 C 784 140, 784 80, 614 80" fill="none" stroke="#E5E7EB" stroke-width="0.6" opacity="0.5"/><path d="M 954 140 C 784 140, 784 170, 614 170" fill="none" stroke="#E5E7EB" stroke-width="0.6" opacity="0.5"/><path d="M 954 140 C 499 140, 499 155, 44 155" fill="none" stroke="#E5E7EB" stroke-width="0.6" opacity="0.5"/><path d="M 954 140 C 784 140, 784 140, 614 140" fill="none" stroke="#E5E7EB" stroke-width="0.6" opacity="0.5"/><path d="M 764 110 C 689 110, 689 140, 614 140" fill="none" stroke="#E5E7EB" stroke-width="0.6" opacity="0.5"/><path d="M 384 155 C 214 155, 214 215, 44 215" fill="none" stroke="#E5E7EB" stroke-width="0.6" opacity="0.5"/><path d="M 384 155 C 309 155, 309 125, 234 125" fill="none" stroke="#E5E7EB" stroke-width="0.6" opacity="0.5"/><path d="M 194 95 C 119 95, 119 155, 44 155" fill="none" stroke="#E5E7EB" stroke-width="0.6" opacity="0.5"/><path d="M 194 95 C 404 95, 404 80, 614 80" fill="none" stroke="#E5E7EB" stroke-width="0.6" opacity="0.5"/><path d="M 194 95 C 119 95, 119 185, 44 185" fill="none" stroke="#E5E7EB" stroke-width="0.6" opacity="0.5"/><path d="M 574 125 C 879 125, 879 110, 1184 110" fill="none" stroke="#E5E7EB" stroke-width="0.6" opacity="0.5"/><path d="M 1144 110 C 1069 110, 1069 140, 994 140" fill="none" stroke="#E5E7EB" stroke-width="0.6" opacity="0.5"/><path d="M 194 125 C 119 125, 119 185, 44 185" fill="none" stroke="#E5E7EB" stroke-width="0.6" opacity="0.5"/><path d="M 954 170 C 594 170, 594 155, 234 155" fill="none" stroke="#E5E7EB" stroke-width="0.6" opacity="0.5"/><path d="M 954 170 C 784 170, 784 140, 614 140" fill="none" stroke="#E5E7EB" stroke-width="0.6" opacity="0.5"/><path d="M 954 170 C 974 170, 974 110, 994 110" fill="none" stroke="#E5E7EB" stroke-width="0.6" opacity="0.5"/><path d="M 954 170 C 784 170, 784 80, 614 80" fill="none" stroke="#E5E7EB" stroke-width="0.6" opacity="0.5"/><path d="M 954 170 C 499 170, 499 185, 44 185" fill="none" stroke="#E5E7EB" stroke-width="0.6" opacity="0.5"/><path d="M 954 170 C 499 170, 499 215, 44 215" fill="none" stroke="#E5E7EB" stroke-width="0.6" opacity="0.5"/><path d="M 954 170 C 784 170, 784 80, 614 80" fill="none" stroke="#E5E7EB" stroke-width="0.6" opacity="0.5"/><path d="M 954 170 C 784 170, 784 170, 614 170" fill="none" stroke="#E5E7EB" stroke-width="0.6" opacity="0.5"/><path d="M 954 170 C 784 170, 784 200, 614 200" fill="none" stroke="#E5E7EB" stroke-width="0.6" opacity="0.5"/><path d="M 954 170 C 499 170, 499 155, 44 155" fill="none" stroke="#E5E7EB" stroke-width="0.6" opacity="0.5"/><path d="M 954 170 C 1164 170, 1164 95, 1374 95" fill="none" stroke="#E5E7EB" stroke-width="0.6" opacity="0.5"/><path d="M 1524 125 C 879 125, 879 155, 234 155" fill="none" stroke="#E5E7EB" stroke-width="0.6" opacity="0.5"/><path d="M 1524 125 C 1259 125, 1259 110, 994 110" fill="none" stroke="#E5E7EB" stroke-width="0.6" opacity="0.5"/><path d="M 1524 125 C 1544 125, 1544 110, 1564 110" fill="none" stroke="#E5E7EB" stroke-width="0.6" opacity="0.5"/><path d="M 1524 125 C 1069 125, 1069 140, 614 140" fill="none" stroke="#E5E7EB" stroke-width="0.6" opacity="0.5"/><path d="M 1524 125 C 1259 125, 1259 140, 994 140" fill="none" stroke="#E5E7EB" stroke-width="0.6" opacity="0.5"/><path d="M 1524 125 C 1164 125, 1164 110, 804 110" fill="none" stroke="#E5E7EB" stroke-width="0.6" opacity="0.5"/><path d="M 1334 140 C 1259 140, 1259 170, 1184 170" fill="none" stroke="#E5E7EB" stroke-width="0.6" opacity="0.5"/><path d="M 194 155 C 404 155, 404 80, 614 80" fill="none" stroke="#E5E7EB" stroke-width="0.6" opacity="0.5"/><path d="M 764 170 C 689 170, 689 80, 614 80" fill="none" stroke="#E5E7EB" stroke-width="0.6" opacity="0.5"/><path d="M 764 170 C 404 170, 404 155, 44 155" fill="none" stroke="#E5E7EB" stroke-width="0.6" opacity="0.5"/><path d="M 764 170 C 689 170, 689 140, 614 140" fill="none" stroke="#E5E7EB" stroke-width="0.6" opacity="0.5"/><path d="M 1524 215 C 1449 215, 1449 65, 1374 65" fill="none" stroke="#E5E7EB" stroke-width="0.6" opacity="0.5"/><path d="M 1144 170 C 1164 170, 1164 110, 1184 110" fill="none" stroke="#E5E7EB" stroke-width="0.6" opacity="0.5"/><path d="M 1144 170 C 1164 170, 1164 110, 1184 110" fill="none" stroke="#E5E7EB" stroke-width="0.6" opacity="0.5"/><g opacity="0.28"><rect x="44" y="54" width="150" height="22" rx="5" fill="#46B0A4" stroke="#fff" stroke-width="1"/><text x="119" y="69" font-family="monospace" font-size="10" fill="#fff" text-anchor="middle">bebop</text></g><g opacity="0.28"><rect x="1374" y="54" width="150" height="22" rx="5" fill="#7A8AA0" stroke="#fff" stroke-width="1"/><text x="1449" y="69" font-family="monospace" font-size="10" fill="#fff" text-anchor="middle">auth</text></g><g opacity="0.28"><rect x="614" y="69" width="150" height="22" rx="5" fill="#5B8DEF" stroke="#fff" stroke-width="1"/><text x="689" y="84" font-family="monospace" font-size="10" fill="#fff" text-anchor="middle">backend</text></g><g opacity="1"><rect x="804" y="99" width="150" height="22" rx="5" fill="#9B6DDE" stroke="#fff" stroke-width="1"/><text x="879" y="114" font-family="monospace" font-size="10" fill="#fff" text-anchor="middle">consciousness</text></g><g opacity="0.28"><rect x="804" y="129" width="150" height="22" rx="5" fill="#9B6DDE" stroke="#fff" stroke-width="1"/><text x="879" y="144" font-family="monospace" font-size="10" fill="#fff" text-anchor="middle">copilot</text></g><g opacity="0.28"><rect x="234" y="114" width="150" height="22" rx="5" fill="#E0573E" stroke="#fff" stroke-width="1"/><text x="309" y="129" font-family="monospace" font-size="10" fill="#fff" text-anchor="middle">core-wasm</text></g><g opacity="1"><rect x="1184" y="99" width="150" height="22" rx="5" fill="#D98E2B" stroke="#fff" stroke-width="1"/><text x="1259" y="114" font-family="monospace" font-size="10" fill="#fff" text-anchor="middle">crypto</text></g><g opacity="0.28"><rect x="614" y="99" width="150" height="22" rx="5" fill="#5B8DEF" stroke="#fff" stroke-width="1"/><text x="689" y="114" font-family="monospace" font-size="10" fill="#fff" text-anchor="middle">free-llm</text></g><g opacity="0.28"><rect x="1564" y="99" width="150" height="22" rx="5" fill="#9AA0A6" stroke="#fff" stroke-width="1"/><text x="1639" y="114" font-family="monospace" font-size="10" fill="#fff" text-anchor="middle">governor</text></g><g opacity="0.28"><rect x="234" y="144" width="150" height="22" rx="5" fill="#E0573E" stroke="#fff" stroke-width="1"/><text x="309" y="159" font-family="monospace" font-size="10" fill="#fff" text-anchor="middle">guard</text></g><g opacity="0.28"><rect x="1374" y="84" width="150" height="22" rx="5" fill="#7A8AA0" stroke="#fff" stroke-width="1"/><text x="1449" y="99" font-family="monospace" font-size="10" fill="#fff" text-anchor="middle">hooks</text></g><g opacity="0.28"><rect x="44" y="84" width="150" height="22" rx="5" fill="#46B0A4" stroke="#fff" stroke-width="1"/><text x="119" y="99" font-family="monospace" font-size="10" fill="#fff" text-anchor="middle">init</text></g><g opacity="1"><rect x="424" y="114" width="150" height="22" rx="5" fill="#C9A227" stroke="#111" stroke-width="2"/><text x="499" y="129" font-family="monospace" font-size="10" fill="#fff" text-anchor="middle">kernel</text></g><g opacity="0.28"><rect x="994" y="99" width="150" height="22" rx="5" fill="#3FB68B" stroke="#fff" stroke-width="1"/><text x="1069" y="114" font-family="monospace" font-size="10" fill="#fff" text-anchor="middle">knowledge</text></g><g opacity="0.28"><rect x="44" y="114" width="150" height="22" rx="5" fill="#46B0A4" stroke="#fff" stroke-width="1"/><text x="119" y="129" font-family="monospace" font-size="10" fill="#fff" text-anchor="middle">launch</text></g><g opacity="0.28"><rect x="804" y="159" width="150" height="22" rx="5" fill="#9B6DDE" stroke="#fff" stroke-width="1"/><text x="879" y="174" font-family="monospace" font-size="10" fill="#fff" text-anchor="middle">loop</text></g><g opacity="0.28"><rect x="1374" y="114" width="150" height="22" rx="5" fill="#7A8AA0" stroke="#fff" stroke-width="1"/><text x="1449" y="129" font-family="monospace" font-size="10" fill="#fff" text-anchor="middle">mcp</text></g><g opacity="0.28"><rect x="994" y="129" width="150" height="22" rx="5" fill="#3FB68B" stroke="#fff" stroke-width="1"/><text x="1069" y="144" font-family="monospace" font-size="10" fill="#fff" text-anchor="middle">memory</text></g><g opacity="0.28"><rect x="1184" y="129" width="150" height="22" rx="5" fill="#D98E2B" stroke="#fff" stroke-width="1"/><text x="1259" y="144" font-family="monospace" font-size="10" fill="#fff" text-anchor="middle">mesh</text></g><g opacity="0.28"><rect x="1564" y="129" width="150" height="22" rx="5" fill="#9AA0A6" stroke="#fff" stroke-width="1"/><text x="1639" y="144" font-family="monospace" font-size="10" fill="#fff" text-anchor="middle">optional-deps.d</text></g><g opacity="0.28"><rect x="44" y="144" width="150" height="22" rx="5" fill="#46B0A4" stroke="#fff" stroke-width="1"/><text x="119" y="159" font-family="monospace" font-size="10" fill="#fff" text-anchor="middle">profile</text></g><g opacity="0.28"><rect x="614" y="129" width="150" height="22" rx="5" fill="#5B8DEF" stroke="#fff" stroke-width="1"/><text x="689" y="144" font-family="monospace" font-size="10" fill="#fff" text-anchor="middle">router</text></g><g opacity="0.28"><rect x="614" y="159" width="150" height="22" rx="5" fill="#5B8DEF" stroke="#fff" stroke-width="1"/><text x="689" y="174" font-family="monospace" font-size="10" fill="#fff" text-anchor="middle">routing</text></g><g opacity="0.28"><rect x="1374" y="144" width="150" height="22" rx="5" fill="#7A8AA0" stroke="#fff" stroke-width="1"/><text x="1449" y="159" font-family="monospace" font-size="10" fill="#fff" text-anchor="middle">settings</text></g><g opacity="0.28"><rect x="1374" y="174" width="150" height="22" rx="5" fill="#7A8AA0" stroke="#fff" stroke-width="1"/><text x="1449" y="189" font-family="monospace" font-size="10" fill="#fff" text-anchor="middle">skills</text></g><g opacity="0.28"><rect x="424" y="144" width="150" height="22" rx="5" fill="#C9A227" stroke="#fff" stroke-width="1"/><text x="499" y="159" font-family="monospace" font-size="10" fill="#fff" text-anchor="middle">store</text></g><g opacity="0.28"><rect x="1374" y="204" width="150" height="22" rx="5" fill="#7A8AA0" stroke="#fff" stroke-width="1"/><text x="1449" y="219" font-family="monospace" font-size="10" fill="#fff" text-anchor="middle">sync-server</text></g><g opacity="0.28"><rect x="44" y="174" width="150" height="22" rx="5" fill="#46B0A4" stroke="#fff" stroke-width="1"/><text x="119" y="189" font-family="monospace" font-size="10" fill="#fff" text-anchor="middle">theme</text></g><g opacity="0.28"><rect x="614" y="189" width="150" height="22" rx="5" fill="#5B8DEF" stroke="#fff" stroke-width="1"/><text x="689" y="204" font-family="monospace" font-size="10" fill="#fff" text-anchor="middle">token</text></g><g opacity="0.28"><rect x="1184" y="159" width="150" height="22" rx="5" fill="#D98E2B" stroke="#fff" stroke-width="1"/><text x="1259" y="174" font-family="monospace" font-size="10" fill="#fff" text-anchor="middle">torrent</text></g><g opacity="0.28"><rect x="1564" y="159" width="150" height="22" rx="5" fill="#9AA0A6" stroke="#fff" stroke-width="1"/><text x="1639" y="174" font-family="monospace" font-size="10" fill="#fff" text-anchor="middle">understand</text></g><g opacity="0.28"><rect x="994" y="159" width="150" height="22" rx="5" fill="#3FB68B" stroke="#fff" stroke-width="1"/><text x="1069" y="174" font-family="monospace" font-size="10" fill="#fff" text-anchor="middle">vault</text></g><g opacity="0.28"><rect x="44" y="204" width="150" height="22" rx="5" fill="#46B0A4" stroke="#fff" stroke-width="1"/><text x="119" y="219" font-family="monospace" font-size="10" fill="#fff" text-anchor="middle">voice</text></g><g><rect x="24" y="250" width="11" height="11" rx="2" fill="#46B0A4"/><text x="40" y="260" font-family="sans-serif" font-size="10" fill="#444">shell</text><rect x="120" y="250" width="11" height="11" rx="2" fill="#E0573E"/><text x="136" y="260" font-family="sans-serif" font-size="10" fill="#444">guard</text><rect x="216" y="250" width="11" height="11" rx="2" fill="#C9A227"/><text x="232" y="260" font-family="sans-serif" font-size="10" fill="#444">core</text><rect x="312" y="250" width="11" height="11" rx="2" fill="#5B8DEF"/><text x="328" y="260" font-family="sans-serif" font-size="10" fill="#444">routing</text><rect x="408" y="250" width="11" height="11" rx="2" fill="#9B6DDE"/><text x="424" y="260" font-family="sans-serif" font-size="10" fill="#444">agent</text><rect x="504" y="250" width="11" height="11" rx="2" fill="#3FB68B"/><text x="520" y="260" font-family="sans-serif" font-size="10" fill="#444">memory</text><rect x="600" y="250" width="11" height="11" rx="2" fill="#D98E2B"/><text x="616" y="260" font-family="sans-serif" font-size="10" fill="#444">mesh</text><rect x="696" y="250" width="11" height="11" rx="2" fill="#7A8AA0"/><text x="712" y="260" font-family="sans-serif" font-size="10" fill="#444">platform</text><rect x="792" y="250" width="11" height="11" rx="2" fill="#9AA0A6"/><text x="808" y="260" font-family="sans-serif" font-size="10" fill="#444">other</text></g></svg>