<svg xmlns="http://www.w3.org/2000/svg" width="368" height="470" viewBox="0 0 368 470"><rect width="368" height="470" fill="#FBFCFD"/><text x="24" y="22" font-family="sans-serif" font-size="13" font-weight="bold" fill="#1a1a1a">Freestyle bebop soul — self loop (src/consciousness.ts)</text><line x1="184" y1="80" x2="184" y2="114" stroke="#8a94a0" stroke-width="1.4"/><path d="M 180 108 L 184 114 L 188 108 Z" fill="#8a94a0"/><line x1="184" y1="154" x2="184" y2="188" stroke="#8a94a0" stroke-width="1.4"/><path d="M 180 182 L 184 188 L 188 182 Z" fill="#8a94a0"/><line x1="184" y1="228" x2="184" y2="262" stroke="#8a94a0" stroke-width="1.4"/><path d="M 180 256 L 184 262 L 188 256 Z" fill="#8a94a0"/><line x1="184" y1="302" x2="184" y2="336" stroke="#8a94a0" stroke-width="1.4"/><path d="M 180 330 L 184 336 L 188 330 Z" fill="#8a94a0"/><line x1="184" y1="376" x2="184" y2="410" stroke="#8a94a0" stroke-width="1.4"/><path d="M 180 404 L 184 410 L 188 404 Z" fill="#8a94a0"/><g><rect x="24" y="40" width="320" height="40" rx="6" fill="#46B0A4"/><text x="33" y="59" font-family="sans-serif" font-size="11" font-weight="bold" fill="#fff">1</text><text x="48" y="57" font-family="sans-serif" font-size="11" font-weight="bold" fill="#fff">selfMaintain()</text><text x="48" y="72" font-family="monospace" font-size="9" fill="#eef">test harness + invariant</text></g><g><rect x="24" y="114" width="320" height="40" rx="6" fill="#3FB68B"/><text x="33" y="133" font-family="sans-serif" font-size="11" font-weight="bold" fill="#fff">2</text><text x="48" y="131" font-family="sans-serif" font-size="11" font-weight="bold" fill="#fff">health report</text></g><g><rect x="24" y="188" width="320" height="40" rx="6" fill="#E0573E"/><text x="33" y="207" font-family="sans-serif" font-size="11" font-weight="bold" fill="#fff">3</text><text x="48" y="205" font-family="sans-serif" font-size="11" font-weight="bold" fill="#fff">selfEvolve(idea)</text><text x="48" y="220" font-family="monospace" font-size="9" fill="#eef">copilot Checker gate</text></g><g><rect x="24" y="262" width="320" height="40" rx="6" fill="#3FB68B"/><text x="33" y="281" font-family="sans-serif" font-size="11" font-weight="bold" fill="#fff">4</text><text x="48" y="279" font-family="sans-serif" font-size="11" font-weight="bold" fill="#fff">accepted → memory node</text><text x="48" y="294" font-family="monospace" font-size="9" fill="#eef">auditable</text></g><g><rect x="24" y="336" width="320" height="40" rx="6" fill="#46B0A4"/><text x="33" y="355" font-family="sans-serif" font-size="11" font-weight="bold" fill="#fff">5</text><text x="48" y="353" font-family="sans-serif" font-size="11" font-weight="bold" fill="#fff">rollback?</text><text x="48" y="368" font-family="monospace" font-size="9" fill="#eef">forget the node</text></g><g><rect x="24" y="410" width="320" height="40" rx="6" fill="#9B6DDE"/><text x="33" y="429" font-family="sans-serif" font-size="11" font-weight="bold" fill="#fff">6</text><text x="48" y="427" font-family="sans-serif" font-size="11" font-weight="bold" fill="#fff">selfLoop(ideas)</text><text x="48" y="442" font-family="monospace" font-size="9" fill="#eef">maintain + batch evolve</text></g></svg>